<svg data-name="Layer 1" xmlns="http://www.w3.org/2000/svg" viewBox="0 0 48 48"><path d="M29.49 42a1.89 1.89 0 0 1-1.36-.58l-3.69-3.81a1.64 1.64 0 0 1-.44-1.38A1.48 1.48 0 0 1 25.42 35H27V16.74A1.73 1.73 0 0 1 28.72 15H39v5h-7v15h1.56A1.45 1.45 0 0 1 35 36.15a1.69 1.69 0 0 1-.44 1.47l-3.69 3.81a1.89 1.89 0 0 1-1.38.57zM32 32v-5h7V12h-1.55A1.46 1.46 0 0 1 36 10.55a1.65 1.65 0 0 1 .46-1.15l3.68-3.81a1.89 1.89 0 0 1 2.73 0l3.67 3.81a1.86 1.86 0 0 1 .46 1.08v.11A1.42 1.42 0 0 1 45.54 12H44v18.29A1.73 1.73 0 0 1 42.25 32z" fill-rule="evenodd" fill="#fff"/><path d="M41.5 6a.9.9 0 0 1 .65.28l3.68 3.81a.85.85 0 0 1 .17.43.43.43 0 0 1-.44.45H43v19.32a.73.73 0 0 1-.75.71H33v-3h7V11h-2.55a.46.46 0 0 1-.46-.47.65.65 0 0 1 .18-.45l3.68-3.81A.9.9 0 0 1 41.5 6M38 16v3h-7v17h2.56a.46.46 0 0 1 .45.36.66.66 0 0 1-.18.56l-3.69 3.81a.9.9 0 0 1-1.3 0l-3.69-3.81a.65.65 0 0 1-.18-.55.46.46 0 0 1 .45-.37H28V16.74a.72.72 0 0 1 .72-.74H38m3.5-12a2.88 2.88 0 0 0-2.08.88l-3.69 3.83a2.64 2.64 0 0 0-.73 1.82A2.47 2.47 0 0 0 37.45 13H38v1h-9.28A2.73 2.73 0 0 0 26 16.74V34h-.58A2.47 2.47 0 0 0 23 36v.12a2.64 2.64 0 0 0 .72 2.23l3.69 3.81a2.9 2.9 0 0 0 4.16 0l3.7-3.81a2.67 2.67 0 0 0 .73-2.28v-.13A2.44 2.44 0 0 0 33.56 34H33v-1h9.25A2.73 2.73 0 0 0 45 30.29V13h.54A2.42 2.42 0 0 0 48 10.62v-.18a2.83 2.83 0 0 0-.61-1.6l-.05-.07-.06-.06-3.7-3.82A2.88 2.88 0 0 0 41.5 4zM33 21h5v5h-5v-5z" fill="#6a3889"/><path d="M28 3L3 7.4v33.24L28 45z" fill="#6a3889" fill-rule="evenodd"/><path d="M16 14.87l-3 .19v16.89l3 .19V14.87" fill="#fff"/></svg>