<svg xmlns="http://www.w3.org/2000/svg" width="790" height="462" viewBox="0 0 790 462" font-family="ui-monospace, SFMono-Regular, Menlo, Consolas, monospace">
<rect width="790" height="462" fill="#0d1117"/>
<text x="20.0" y="34.0" fill="#e6edf3" font-size="15" text-anchor="start" font-weight="700">QUINE coverage audit — line + branch by tier</text>
<text x="20.0" y="54.0" fill="#8b949e" font-size="12" text-anchor="start">8/12 areas green · columns: L = line %, B = branch %</text>
<text x="181.0" y="90.0" fill="#8b949e" font-size="10" text-anchor="middle">Unit L</text>
<text x="243.0" y="90.0" fill="#8b949e" font-size="10" text-anchor="middle">Unit B</text>
<text x="305.0" y="90.0" fill="#8b949e" font-size="10" text-anchor="middle">Inte L</text>
<text x="367.0" y="90.0" fill="#8b949e" font-size="10" text-anchor="middle">Inte B</text>
<text x="429.0" y="90.0" fill="#8b949e" font-size="10" text-anchor="middle">E2E L</text>
<text x="491.0" y="90.0" fill="#8b949e" font-size="10" text-anchor="middle">E2E B</text>
<text x="553.0" y="90.0" fill="#8b949e" font-size="10" text-anchor="middle">Smok L</text>
<text x="615.0" y="90.0" fill="#8b949e" font-size="10" text-anchor="middle">Smok B</text>
<text x="677.0" y="90.0" fill="#8b949e" font-size="10" text-anchor="middle">Fuzz L</text>
<text x="739.0" y="90.0" fill="#8b949e" font-size="10" text-anchor="middle">Fuzz B</text>
<text x="142.0" y="113.0" fill="#e6edf3" font-size="11" text-anchor="end">apps</text>
<rect x="150.0" y="96.0" width="60.5" height="24.5" rx="2" fill="#47b671"/>
<text x="181.0" y="113.0" fill="#0d1117" font-size="10" text-anchor="middle">67</text>
<rect x="212.0" y="96.0" width="60.5" height="24.5" rx="2" fill="#28808b"/>
<text x="243.0" y="113.0" fill="#e6edf3" font-size="10" text-anchor="middle">45</text>
<rect x="274.0" y="96.0" width="60.5" height="24.5" rx="2" fill="#336589"/>
<text x="305.0" y="113.0" fill="#e6edf3" font-size="10" text-anchor="middle">36</text>
<rect x="336.0" y="96.0" width="60.5" height="24.5" rx="2" fill="#395888"/>
<text x="367.0" y="113.0" fill="#e6edf3" font-size="10" text-anchor="middle">31</text>
<rect x="398.0" y="96.0" width="60.5" height="24.5" rx="2" fill="#42377c"/>
<text x="429.0" y="113.0" fill="#e6edf3" font-size="10" text-anchor="middle">20</text>
<rect x="460.0" y="96.0" width="60.5" height="24.5" rx="2" fill="#3d5088"/>
<text x="491.0" y="113.0" fill="#e6edf3" font-size="10" text-anchor="middle">28</text>
<rect x="522.0" y="96.0" width="60.5" height="24.5" rx="2" fill="#440154"/>
<text x="553.0" y="113.0" fill="#e6edf3" font-size="10" text-anchor="middle">0</text>
<rect x="584.0" y="96.0" width="60.5" height="24.5" rx="2" fill="#440154"/>
<text x="615.0" y="113.0" fill="#e6edf3" font-size="10" text-anchor="middle">0</text>
<rect x="646.0" y="96.0" width="60.5" height="24.5" rx="2" fill="#440154"/>
<text x="677.0" y="113.0" fill="#e6edf3" font-size="10" text-anchor="middle">0</text>
<rect x="708.0" y="96.0" width="60.5" height="24.5" rx="2" fill="#440154"/>
<text x="739.0" y="113.0" fill="#e6edf3" font-size="10" text-anchor="middle">0</text>
<text x="142.0" y="139.0" fill="#e6edf3" font-size="11" text-anchor="end">benchmark</text>
<rect x="150.0" y="122.0" width="60.5" height="24.5" rx="2" fill="#efe42a"/>
<text x="181.0" y="139.0" fill="#0d1117" font-size="10" text-anchor="middle">98</text>
<rect x="212.0" y="122.0" width="60.5" height="24.5" rx="2" fill="#21262d"/>
<text x="243.0" y="139.0" fill="#8b949e" font-size="10" text-anchor="middle">—</text>
<rect x="274.0" y="122.0" width="60.5" height="24.5" rx="2" fill="#21262d"/>
<text x="305.0" y="139.0" fill="#8b949e" font-size="10" text-anchor="middle">—</text>
<rect x="336.0" y="122.0" width="60.5" height="24.5" rx="2" fill="#21262d"/>
<text x="367.0" y="139.0" fill="#8b949e" font-size="10" text-anchor="middle">—</text>
<rect x="398.0" y="122.0" width="60.5" height="24.5" rx="2" fill="#21262d"/>
<text x="429.0" y="139.0" fill="#8b949e" font-size="10" text-anchor="middle">—</text>
<rect x="460.0" y="122.0" width="60.5" height="24.5" rx="2" fill="#21262d"/>
<text x="491.0" y="139.0" fill="#8b949e" font-size="10" text-anchor="middle">—</text>
<rect x="522.0" y="122.0" width="60.5" height="24.5" rx="2" fill="#21262d"/>
<text x="553.0" y="139.0" fill="#8b949e" font-size="10" text-anchor="middle">—</text>
<rect x="584.0" y="122.0" width="60.5" height="24.5" rx="2" fill="#21262d"/>
<text x="615.0" y="139.0" fill="#8b949e" font-size="10" text-anchor="middle">—</text>
<rect x="646.0" y="122.0" width="60.5" height="24.5" rx="2" fill="#21262d"/>
<text x="677.0" y="139.0" fill="#8b949e" font-size="10" text-anchor="middle">—</text>
<rect x="708.0" y="122.0" width="60.5" height="24.5" rx="2" fill="#21262d"/>
<text x="739.0" y="139.0" fill="#8b949e" font-size="10" text-anchor="middle">—</text>
<text x="142.0" y="165.0" fill="#e6edf3" font-size="11" text-anchor="end">butler</text>
<rect x="150.0" y="148.0" width="60.5" height="24.5" rx="2" fill="#a8d746"/>
<text x="181.0" y="165.0" fill="#0d1117" font-size="10" text-anchor="middle">87</text>
<rect x="212.0" y="148.0" width="60.5" height="24.5" rx="2" fill="#71cc5b"/>
<text x="243.0" y="165.0" fill="#0d1117" font-size="10" text-anchor="middle">79</text>
<rect x="274.0" y="148.0" width="60.5" height="24.5" rx="2" fill="#3a5688"/>
<text x="305.0" y="165.0" fill="#e6edf3" font-size="10" text-anchor="middle">30</text>
<rect x="336.0" y="148.0" width="60.5" height="24.5" rx="2" fill="#3c5188"/>
<text x="367.0" y="165.0" fill="#e6edf3" font-size="10" text-anchor="middle">29</text>
<rect x="398.0" y="148.0" width="60.5" height="24.5" rx="2" fill="#42246e"/>
<text x="429.0" y="165.0" fill="#e6edf3" font-size="10" text-anchor="middle">13</text>
<rect x="460.0" y="148.0" width="60.5" height="24.5" rx="2" fill="#42246e"/>
<text x="491.0" y="165.0" fill="#e6edf3" font-size="10" text-anchor="middle">13</text>
<rect x="522.0" y="148.0" width="60.5" height="24.5" rx="2" fill="#440355"/>
<text x="553.0" y="165.0" fill="#e6edf3" font-size="10" text-anchor="middle">1</text>
<rect x="584.0" y="148.0" width="60.5" height="24.5" rx="2" fill="#440356"/>
<text x="615.0" y="165.0" fill="#e6edf3" font-size="10" text-anchor="middle">1</text>
<rect x="646.0" y="148.0" width="60.5" height="24.5" rx="2" fill="#440a5b"/>
<text x="677.0" y="165.0" fill="#e6edf3" font-size="10" text-anchor="middle">3</text>
<rect x="708.0" y="148.0" width="60.5" height="24.5" rx="2" fill="#440557"/>
<text x="739.0" y="165.0" fill="#e6edf3" font-size="10" text-anchor="middle">2</text>
<text x="142.0" y="191.0" fill="#e6edf3" font-size="11" text-anchor="end">envelope</text>
<rect x="150.0" y="174.0" width="60.5" height="24.5" rx="2" fill="#8cd151"/>
<text x="181.0" y="191.0" fill="#0d1117" font-size="10" text-anchor="middle">83</text>
<rect x="212.0" y="174.0" width="60.5" height="24.5" rx="2" fill="#d7e034"/>
<text x="243.0" y="191.0" fill="#0d1117" font-size="10" text-anchor="middle">94</text>
<rect x="274.0" y="174.0" width="60.5" height="24.5" rx="2" fill="#25868b"/>
<text x="305.0" y="191.0" fill="#0d1117" font-size="10" text-anchor="middle">47</text>
<rect x="336.0" y="174.0" width="60.5" height="24.5" rx="2" fill="#64ca60"/>
<text x="367.0" y="191.0" fill="#0d1117" font-size="10" text-anchor="middle">76</text>
<rect x="398.0" y="174.0" width="60.5" height="24.5" rx="2" fill="#2f708a"/>
<text x="429.0" y="191.0" fill="#e6edf3" font-size="10" text-anchor="middle">39</text>
<rect x="460.0" y="174.0" width="60.5" height="24.5" rx="2" fill="#289687"/>
<text x="491.0" y="191.0" fill="#0d1117" font-size="10" text-anchor="middle">53</text>
<rect x="522.0" y="174.0" width="60.5" height="24.5" rx="2" fill="#309f82"/>
<text x="553.0" y="191.0" fill="#0d1117" font-size="10" text-anchor="middle">56</text>
<rect x="584.0" y="174.0" width="60.5" height="24.5" rx="2" fill="#289687"/>
<text x="615.0" y="191.0" fill="#0d1117" font-size="10" text-anchor="middle">53</text>
<rect x="646.0" y="174.0" width="60.5" height="24.5" rx="2" fill="#228d8c"/>
<text x="677.0" y="191.0" fill="#0d1117" font-size="10" text-anchor="middle">49</text>
<rect x="708.0" y="174.0" width="60.5" height="24.5" rx="2" fill="#b0d843"/>
<text x="739.0" y="191.0" fill="#0d1117" font-size="10" text-anchor="middle">88</text>
<text x="142.0" y="217.0" fill="#e6edf3" font-size="11" text-anchor="end">governance</text>
<rect x="150.0" y="200.0" width="60.5" height="24.5" rx="2" fill="#21262d"/>
<text x="181.0" y="217.0" fill="#8b949e" font-size="10" text-anchor="middle">—</text>
<rect x="212.0" y="200.0" width="60.5" height="24.5" rx="2" fill="#21262d"/>
<text x="243.0" y="217.0" fill="#8b949e" font-size="10" text-anchor="middle">—</text>
<rect x="274.0" y="200.0" width="60.5" height="24.5" rx="2" fill="#21262d"/>
<text x="305.0" y="217.0" fill="#8b949e" font-size="10" text-anchor="middle">—</text>
<rect x="336.0" y="200.0" width="60.5" height="24.5" rx="2" fill="#21262d"/>
<text x="367.0" y="217.0" fill="#8b949e" font-size="10" text-anchor="middle">—</text>
<rect x="398.0" y="200.0" width="60.5" height="24.5" rx="2" fill="#21262d"/>
<text x="429.0" y="217.0" fill="#8b949e" font-size="10" text-anchor="middle">—</text>
<rect x="460.0" y="200.0" width="60.5" height="24.5" rx="2" fill="#21262d"/>
<text x="491.0" y="217.0" fill="#8b949e" font-size="10" text-anchor="middle">—</text>
<rect x="522.0" y="200.0" width="60.5" height="24.5" rx="2" fill="#21262d"/>
<text x="553.0" y="217.0" fill="#8b949e" font-size="10" text-anchor="middle">—</text>
<rect x="584.0" y="200.0" width="60.5" height="24.5" rx="2" fill="#21262d"/>
<text x="615.0" y="217.0" fill="#8b949e" font-size="10" text-anchor="middle">—</text>
<rect x="646.0" y="200.0" width="60.5" height="24.5" rx="2" fill="#21262d"/>
<text x="677.0" y="217.0" fill="#8b949e" font-size="10" text-anchor="middle">—</text>
<rect x="708.0" y="200.0" width="60.5" height="24.5" rx="2" fill="#21262d"/>
<text x="739.0" y="217.0" fill="#8b949e" font-size="10" text-anchor="middle">—</text>
<text x="142.0" y="243.0" fill="#e6edf3" font-size="11" text-anchor="end">perception</text>
<rect x="150.0" y="226.0" width="60.5" height="24.5" rx="2" fill="#a0d549"/>
<text x="181.0" y="243.0" fill="#0d1117" font-size="10" text-anchor="middle">86</text>
<rect x="212.0" y="226.0" width="60.5" height="24.5" rx="2" fill="#79ce58"/>
<text x="243.0" y="243.0" fill="#0d1117" font-size="10" text-anchor="middle">80</text>
<rect x="274.0" y="226.0" width="60.5" height="24.5" rx="2" fill="#41b075"/>
<text x="305.0" y="243.0" fill="#0d1117" font-size="10" text-anchor="middle">64</text>
<rect x="336.0" y="226.0" width="60.5" height="24.5" rx="2" fill="#22918b"/>
<text x="367.0" y="243.0" fill="#0d1117" font-size="10" text-anchor="middle">50</text>
<rect x="398.0" y="226.0" width="60.5" height="24.5" rx="2" fill="#440154"/>
<text x="429.0" y="243.0" fill="#e6edf3" font-size="10" text-anchor="middle">0</text>
<rect x="460.0" y="226.0" width="60.5" height="24.5" rx="2" fill="#440154"/>
<text x="491.0" y="243.0" fill="#e6edf3" font-size="10" text-anchor="middle">0</text>
<rect x="522.0" y="226.0" width="60.5" height="24.5" rx="2" fill="#431462"/>
<text x="553.0" y="243.0" fill="#e6edf3" font-size="10" text-anchor="middle">7</text>
<rect x="584.0" y="226.0" width="60.5" height="24.5" rx="2" fill="#440154"/>
<text x="615.0" y="243.0" fill="#e6edf3" font-size="10" text-anchor="middle">0</text>
<rect x="646.0" y="226.0" width="60.5" height="24.5" rx="2" fill="#440154"/>
<text x="677.0" y="243.0" fill="#e6edf3" font-size="10" text-anchor="middle">0</text>
<rect x="708.0" y="226.0" width="60.5" height="24.5" rx="2" fill="#440154"/>
<text x="739.0" y="243.0" fill="#e6edf3" font-size="10" text-anchor="middle">0</text>
<text x="142.0" y="269.0" fill="#e6edf3" font-size="11" text-anchor="end">plexus</text>
<rect x="150.0" y="252.0" width="60.5" height="24.5" rx="2" fill="#21262d"/>
<text x="181.0" y="269.0" fill="#8b949e" font-size="10" text-anchor="middle">—</text>
<rect x="212.0" y="252.0" width="60.5" height="24.5" rx="2" fill="#21262d"/>
<text x="243.0" y="269.0" fill="#8b949e" font-size="10" text-anchor="middle">—</text>
<rect x="274.0" y="252.0" width="60.5" height="24.5" rx="2" fill="#21262d"/>
<text x="305.0" y="269.0" fill="#8b949e" font-size="10" text-anchor="middle">—</text>
<rect x="336.0" y="252.0" width="60.5" height="24.5" rx="2" fill="#21262d"/>
<text x="367.0" y="269.0" fill="#8b949e" font-size="10" text-anchor="middle">—</text>
<rect x="398.0" y="252.0" width="60.5" height="24.5" rx="2" fill="#21262d"/>
<text x="429.0" y="269.0" fill="#8b949e" font-size="10" text-anchor="middle">—</text>
<rect x="460.0" y="252.0" width="60.5" height="24.5" rx="2" fill="#21262d"/>
<text x="491.0" y="269.0" fill="#8b949e" font-size="10" text-anchor="middle">—</text>
<rect x="522.0" y="252.0" width="60.5" height="24.5" rx="2" fill="#21262d"/>
<text x="553.0" y="269.0" fill="#8b949e" font-size="10" text-anchor="middle">—</text>
<rect x="584.0" y="252.0" width="60.5" height="24.5" rx="2" fill="#21262d"/>
<text x="615.0" y="269.0" fill="#8b949e" font-size="10" text-anchor="middle">—</text>
<rect x="646.0" y="252.0" width="60.5" height="24.5" rx="2" fill="#21262d"/>
<text x="677.0" y="269.0" fill="#8b949e" font-size="10" text-anchor="middle">—</text>
<rect x="708.0" y="252.0" width="60.5" height="24.5" rx="2" fill="#21262d"/>
<text x="739.0" y="269.0" fill="#8b949e" font-size="10" text-anchor="middle">—</text>
<text x="142.0" y="295.0" fill="#e6edf3" font-size="11" text-anchor="end">projects</text>
<rect x="150.0" y="278.0" width="60.5" height="24.5" rx="2" fill="#2e728a"/>
<text x="181.0" y="295.0" fill="#e6edf3" font-size="10" text-anchor="middle">40</text>
<rect x="212.0" y="278.0" width="60.5" height="24.5" rx="2" fill="#422871"/>
<text x="243.0" y="295.0" fill="#e6edf3" font-size="10" text-anchor="middle">14</text>
<rect x="274.0" y="278.0" width="60.5" height="24.5" rx="2" fill="#27818b"/>
<text x="305.0" y="295.0" fill="#0d1117" font-size="10" text-anchor="middle">45</text>
<rect x="336.0" y="278.0" width="60.5" height="24.5" rx="2" fill="#431c68"/>
<text x="367.0" y="295.0" fill="#e6edf3" font-size="10" text-anchor="middle">10</text>
<rect x="398.0" y="278.0" width="60.5" height="24.5" rx="2" fill="#cadd39"/>
<text x="429.0" y="295.0" fill="#0d1117" font-size="10" text-anchor="middle">92</text>
<rect x="460.0" y="278.0" width="60.5" height="24.5" rx="2" fill="#41af76"/>
<text x="491.0" y="295.0" fill="#0d1117" font-size="10" text-anchor="middle">64</text>
<rect x="522.0" y="278.0" width="60.5" height="24.5" rx="2" fill="#316c8a"/>
<text x="553.0" y="295.0" fill="#e6edf3" font-size="10" text-anchor="middle">38</text>
<rect x="584.0" y="278.0" width="60.5" height="24.5" rx="2" fill="#44095a"/>
<text x="615.0" y="295.0" fill="#e6edf3" font-size="10" text-anchor="middle">3</text>
<rect x="646.0" y="278.0" width="60.5" height="24.5" rx="2" fill="#430f5e"/>
<text x="677.0" y="295.0" fill="#e6edf3" font-size="10" text-anchor="middle">5</text>
<rect x="708.0" y="278.0" width="60.5" height="24.5" rx="2" fill="#440b5c"/>
<text x="739.0" y="295.0" fill="#e6edf3" font-size="10" text-anchor="middle">4</text>
<text x="142.0" y="321.0" fill="#e6edf3" font-size="11" text-anchor="end">quine</text>
<rect x="150.0" y="304.0" width="60.5" height="24.5" rx="2" fill="#279688"/>
<text x="181.0" y="321.0" fill="#0d1117" font-size="10" text-anchor="middle">53</text>
<rect x="212.0" y="304.0" width="60.5" height="24.5" rx="2" fill="#375d89"/>
<text x="243.0" y="321.0" fill="#e6edf3" font-size="10" text-anchor="middle">33</text>
<rect x="274.0" y="304.0" width="60.5" height="24.5" rx="2" fill="#2b9a85"/>
<text x="305.0" y="321.0" fill="#0d1117" font-size="10" text-anchor="middle">55</text>
<rect x="336.0" y="304.0" width="60.5" height="24.5" rx="2" fill="#3eac78"/>
<text x="367.0" y="321.0" fill="#0d1117" font-size="10" text-anchor="middle">63</text>
<rect x="398.0" y="304.0" width="60.5" height="24.5" rx="2" fill="#440154"/>
<text x="429.0" y="321.0" fill="#e6edf3" font-size="10" text-anchor="middle">0</text>
<rect x="460.0" y="304.0" width="60.5" height="24.5" rx="2" fill="#440154"/>
<text x="491.0" y="321.0" fill="#e6edf3" font-size="10" text-anchor="middle">0</text>
<rect x="522.0" y="304.0" width="60.5" height="24.5" rx="2" fill="#336689"/>
<text x="553.0" y="321.0" fill="#e6edf3" font-size="10" text-anchor="middle">36</text>
<rect x="584.0" y="304.0" width="60.5" height="24.5" rx="2" fill="#422e75"/>
<text x="615.0" y="321.0" fill="#e6edf3" font-size="10" text-anchor="middle">16</text>
<rect x="646.0" y="304.0" width="60.5" height="24.5" rx="2" fill="#440154"/>
<text x="677.0" y="321.0" fill="#e6edf3" font-size="10" text-anchor="middle">0</text>
<rect x="708.0" y="304.0" width="60.5" height="24.5" rx="2" fill="#440154"/>
<text x="739.0" y="321.0" fill="#e6edf3" font-size="10" text-anchor="middle">0</text>
<text x="142.0" y="347.0" fill="#e6edf3" font-size="11" text-anchor="end">seastar-shell</text>
<rect x="150.0" y="330.0" width="60.5" height="24.5" rx="2" fill="#aed843"/>
<text x="181.0" y="347.0" fill="#0d1117" font-size="10" text-anchor="middle">88</text>
<rect x="212.0" y="330.0" width="60.5" height="24.5" rx="2" fill="#8ad152"/>
<text x="243.0" y="347.0" fill="#0d1117" font-size="10" text-anchor="middle">82</text>
<rect x="274.0" y="330.0" width="60.5" height="24.5" rx="2" fill="#440154"/>
<text x="305.0" y="347.0" fill="#e6edf3" font-size="10" text-anchor="middle">0</text>
<rect x="336.0" y="330.0" width="60.5" height="24.5" rx="2" fill="#440154"/>
<text x="367.0" y="347.0" fill="#e6edf3" font-size="10" text-anchor="middle">0</text>
<rect x="398.0" y="330.0" width="60.5" height="24.5" rx="2" fill="#2a7c8b"/>
<text x="429.0" y="347.0" fill="#e6edf3" font-size="10" text-anchor="middle">43</text>
<rect x="460.0" y="330.0" width="60.5" height="24.5" rx="2" fill="#21262d"/>
<text x="491.0" y="347.0" fill="#8b949e" font-size="10" text-anchor="middle">—</text>
<rect x="522.0" y="330.0" width="60.5" height="24.5" rx="2" fill="#440154"/>
<text x="553.0" y="347.0" fill="#e6edf3" font-size="10" text-anchor="middle">0</text>
<rect x="584.0" y="330.0" width="60.5" height="24.5" rx="2" fill="#440154"/>
<text x="615.0" y="347.0" fill="#e6edf3" font-size="10" text-anchor="middle">0</text>
<rect x="646.0" y="330.0" width="60.5" height="24.5" rx="2" fill="#440154"/>
<text x="677.0" y="347.0" fill="#e6edf3" font-size="10" text-anchor="middle">0</text>
<rect x="708.0" y="330.0" width="60.5" height="24.5" rx="2" fill="#440154"/>
<text x="739.0" y="347.0" fill="#e6edf3" font-size="10" text-anchor="middle">0</text>
<text x="142.0" y="373.0" fill="#e6edf3" font-size="11" text-anchor="end">tools</text>
<rect x="150.0" y="356.0" width="60.5" height="24.5" rx="2" fill="#21262d"/>
<text x="181.0" y="373.0" fill="#8b949e" font-size="10" text-anchor="middle">—</text>
<rect x="212.0" y="356.0" width="60.5" height="24.5" rx="2" fill="#21262d"/>
<text x="243.0" y="373.0" fill="#8b949e" font-size="10" text-anchor="middle">—</text>
<rect x="274.0" y="356.0" width="60.5" height="24.5" rx="2" fill="#21262d"/>
<text x="305.0" y="373.0" fill="#8b949e" font-size="10" text-anchor="middle">—</text>
<rect x="336.0" y="356.0" width="60.5" height="24.5" rx="2" fill="#21262d"/>
<text x="367.0" y="373.0" fill="#8b949e" font-size="10" text-anchor="middle">—</text>
<rect x="398.0" y="356.0" width="60.5" height="24.5" rx="2" fill="#21262d"/>
<text x="429.0" y="373.0" fill="#8b949e" font-size="10" text-anchor="middle">—</text>
<rect x="460.0" y="356.0" width="60.5" height="24.5" rx="2" fill="#21262d"/>
<text x="491.0" y="373.0" fill="#8b949e" font-size="10" text-anchor="middle">—</text>
<rect x="522.0" y="356.0" width="60.5" height="24.5" rx="2" fill="#21262d"/>
<text x="553.0" y="373.0" fill="#8b949e" font-size="10" text-anchor="middle">—</text>
<rect x="584.0" y="356.0" width="60.5" height="24.5" rx="2" fill="#21262d"/>
<text x="615.0" y="373.0" fill="#8b949e" font-size="10" text-anchor="middle">—</text>
<rect x="646.0" y="356.0" width="60.5" height="24.5" rx="2" fill="#21262d"/>
<text x="677.0" y="373.0" fill="#8b949e" font-size="10" text-anchor="middle">—</text>
<rect x="708.0" y="356.0" width="60.5" height="24.5" rx="2" fill="#21262d"/>
<text x="739.0" y="373.0" fill="#8b949e" font-size="10" text-anchor="middle">—</text>
<text x="142.0" y="399.0" fill="#e6edf3" font-size="11" text-anchor="end">ugui</text>
<rect x="150.0" y="382.0" width="60.5" height="24.5" rx="2" fill="#e6e32e"/>
<text x="181.0" y="399.0" fill="#0d1117" font-size="10" text-anchor="middle">96</text>
<rect x="212.0" y="382.0" width="60.5" height="24.5" rx="2" fill="#b7da40"/>
<text x="243.0" y="399.0" fill="#0d1117" font-size="10" text-anchor="middle">89</text>
<rect x="274.0" y="382.0" width="60.5" height="24.5" rx="2" fill="#431361"/>
<text x="305.0" y="399.0" fill="#e6edf3" font-size="10" text-anchor="middle">6</text>
<rect x="336.0" y="382.0" width="60.5" height="24.5" rx="2" fill="#431a67"/>
<text x="367.0" y="399.0" fill="#e6edf3" font-size="10" text-anchor="middle">9</text>
<rect x="398.0" y="382.0" width="60.5" height="24.5" rx="2" fill="#306e8a"/>
<text x="429.0" y="399.0" fill="#e6edf3" font-size="10" text-anchor="middle">38</text>
<rect x="460.0" y="382.0" width="60.5" height="24.5" rx="2" fill="#316b8a"/>
<text x="491.0" y="399.0" fill="#e6edf3" font-size="10" text-anchor="middle">38</text>
<rect x="522.0" y="382.0" width="60.5" height="24.5" rx="2" fill="#319f81"/>
<text x="553.0" y="399.0" fill="#0d1117" font-size="10" text-anchor="middle">57</text>
<rect x="584.0" y="382.0" width="60.5" height="24.5" rx="2" fill="#297d8b"/>
<text x="615.0" y="399.0" fill="#e6edf3" font-size="10" text-anchor="middle">44</text>
<rect x="646.0" y="382.0" width="60.5" height="24.5" rx="2" fill="#431b67"/>
<text x="677.0" y="399.0" fill="#e6edf3" font-size="10" text-anchor="middle">9</text>
<rect x="708.0" y="382.0" width="60.5" height="24.5" rx="2" fill="#422d75"/>
<text x="739.0" y="399.0" fill="#e6edf3" font-size="10" text-anchor="middle">16</text>
<text x="14.0" y="450.0" fill="#8b949e" font-size="11" text-anchor="start">gen: tools/helpers/gen_diagrams.py · zero-dependency SVG 🐧</text>
</svg>
